<svg xmlns="http://www.w3.org/2000/svg" viewBox="0 0 1620 1080"><defs><style>.a{fill:#010101;}.b{fill:#fff;fill-rule:evenodd;}</style></defs><title>aeternity-logo-vector-black</title><rect class="a" width="1620" height="1080"/><path class="b" d="M552.45757,455.798c-34.62864,0-58.36422,21.63672-78.87724,48.44389l12.15524,17.757C504.529,496.292,524.49986,476.066,552.45757,476.066c32.11349,0,58.81743,23.27823,63.74865,53.64534H536.4864v20.26875h100.357a83.66406,83.66406,0,0,0,.61934-10.13435c0-46.34412-38.13321-84.0477-85.0052-84.0477"/><path class="b" d="M552.45757,603.62412c-34.18973,0-56.74959-29.52871-85.38788-72.85332s-55.67037-74.97235-97.59933-74.97235c-46.872,0-85.00605,37.70268-85.00605,84.0468,0,46.34329,38.13406,84.04682,85.00605,84.04682,34.56821,0,58.28113-21.56118,78.76978-48.30285l-12.06712-17.872c-18.78754,25.69516-38.75418,45.90687-66.70266,45.90687-35.60634,0-64.57277-28.61061-64.57277-63.77887,0-35.16743,28.96643-63.77884,64.57277-63.77884,34.18974,0,55.53356,28.024,85.32574,72.78279,29.79224,44.758,55.73245,75.04287,97.66147,75.04287a85.12509,85.12509,0,0,0,79.24817-53.64363H609.20965a64.74876,64.74876,0,0,1-56.75208,33.37568"/><path class="b" d="M803.29929,587.98175q-21.97758,0-34.13756-13.98481a36.60386,36.60386,0,0,1-14.94082,10.33521,56.87819,56.87819,0,0,1-20.93335,3.6496q-15.28777,0-23.97291-7.64509-8.68871-7.64214-8.6863-21.194,0-13.72419,10.334-21.194,10.33928-7.46979,30.57675-7.46978h16.59321V524.311q0-7.90338-4.12814-12.3798-4.12582-4.47042-11.76969-4.47166-7.9034,0-12.8986,3.864a11.72,11.72,0,0,0-4.99644,9.59962l-21.01984-1.65129q0-12.68122,10.98907-20.7166,10.98435-8.03478,28.09878-8.03363,19.36914,0,29.0144,11.55173,11.37693-11.72523,28.75023-11.55173,18.41319,0,28.75259,11.2485,10.334,11.25087,10.33517,31.66068v11.9H778.89041q.78355,12.07533,7.38334,18.9374,6.59735,6.86212,18.24089,6.86094a43.75885,43.75885,0,0,0,21.19517-5.03669l5.29849-2.95549,6.34207,14.42073a45.1209,45.1209,0,0,1-15.15749,7.64273,64.15212,64.15212,0,0,1-18.89359,2.78132m-65.92975-15.98433a27.66136,27.66136,0,0,0,10.94643-2.56218,33.10587,33.10587,0,0,0,9.81636-6.29827V544.98373h-17.0279q-9.0334.17592-14.24423,4.29994a12.55544,12.55544,0,0,0-5.212,10.2061,11.31674,11.31674,0,0,0,4.03814,9.076q4.04225,3.4364,11.68321,3.43165m62.80256-64.5379a18.31905,18.31905,0,0,0-14.114,5.99268q-5.51874,5.99676-6.90593,17.02672H818.413V527.8717q0-9.81338-4.73228-15.11251-4.73526-5.30026-13.50861-5.29967"/><path class="b" d="M880.68661,469.41222v22.84526h16.59v15.63605h-16.59v52.46495q0,5.38915,2.12766,7.77543,2.12539,2.3898,7.59913,2.388a32.57787,32.57787,0,0,0,7.38437-.86827v16.329a51.97513,51.97513,0,0,1-13.8983,1.99952q-24.32157,0-24.3224-26.84071v-53.248H844.1162V492.25748h15.46087V469.41222Z"/><path class="b" d="M948.92836,587.98175q-20.06654,0-32.53051-12.63916-12.46647-12.63858-12.46507-33.659v-2.606a56.37493,56.37493,0,0,1,5.4316-25.14683,41.28459,41.28459,0,0,1,15.24385-17.24354,40.3003,40.3003,0,0,1,21.88939-6.16558q19.19442,0,29.66344,12.24709,10.46508,12.24764,10.46675,34.65757v8.51218H925.2155q.95638,11.6418,7.77346,18.41622a23.33809,23.33809,0,0,0,17.15556,6.77446q14.5059,0,23.62853-11.72586l11.37764,10.85877a38.0018,38.0018,0,0,1-15.07122,13.07151,47.1842,47.1842,0,0,1-21.15111,4.64818m-2.51731-80.52223a17.78146,17.78146,0,0,0-14.031,6.07915q-5.34135,6.082-6.81816,16.94025h40.21787v-1.56481q-.695-10.59878-5.64468-16.02577-4.95333-5.42644-13.724-5.42882"/><path class="b" d="M1050.12733,511.54186a52.22232,52.22232,0,0,0-8.60007-.69537q-14.50415,0-19.54238,11.1194v64.27729h-21.10619v-93.9858h20.15136l.5213,10.51169q7.64216-12.24764,21.19388-12.24711a19.7597,19.7597,0,0,1,7.46867,1.21418Z"/><path class="b" d="M1081.00411,492.2576l.609,10.85878q10.42117-12.596,27.362-12.59413,29.36,0,29.88043,33.61515v62.106h-21.10671V525.35276q0-8.94457-3.86736-13.24683-3.86445-4.29988-12.63654-4.29877-12.77191,0-19.02408,11.55179v66.88447h-21.10611V492.2576Z"/><path class="b" d="M1153.531,467.84954a11.19939,11.19939,0,0,1,3.08241-8.07743q3.081-3.21247,8.81645-3.21486,5.7336,0,8.86037,3.21486a11.11841,11.11841,0,0,1,3.12737,8.07743,10.85866,10.85866,0,0,1-3.12737,7.94715q-3.12907,3.17343-8.86037,3.17107-5.73013,0-8.81645-3.17107A10.936,10.936,0,0,1,1153.531,467.84954Zm1.30162,118.39471h21.10679V492.25844h-21.10679Z"/><path class="b" d="M1226.67179,469.41222v22.84526h16.59055v15.63605h-16.59055v52.46495q0,5.38915,2.12878,7.77543,2.12295,2.3898,7.59857,2.388a32.58953,32.58953,0,0,0,7.38441-.86827v16.329a51.97254,51.97254,0,0,1-13.89834,1.99952q-24.32241,0-24.32236-26.84071v-53.248h-15.46036V492.25748h15.46036V469.41222Z"/><path class="b" d="M1293.92842,556.01569l19.11066-63.75843h22.49661l-37.35082,108.2324q-8.60195,23.71175-29.185,23.71234a37.59515,37.59515,0,0,1-10.16371-1.5719V606.22052l3.99555.26178q7.99051,0,12.03046-2.9057,4.03832-2.91045,6.38464-9.76663l3.03856-8.07153-33.00676-93.48118h22.75872Z"/></svg>