<svg xmlns="http://www.w3.org/2000/svg" viewBox="0 0 1080 1080"><defs><style>.a{fill:#010101;}.b{fill:#fff;}.b,.c{fill-rule:evenodd;}.c{fill:#ee306f;}</style></defs><title>aeternity-logo-vector-black</title><rect class="a" width="1080" height="1080"/><path class="b" d="M359.04947,661.40929q-18.41789,0-28.6097-11.72138a30.68052,30.68052,0,0,1-12.52368,8.66224,47.676,47.676,0,0,1-17.54456,3.05914q-12.81179,0-20.09151-6.4084-7.28222-6.40439-7.27972-17.76264,0-11.50179,8.66224-17.76365,8.66274-6.25875,25.62558-6.2593h13.9062v-5.17q0-6.6234-3.4583-10.3748-3.45879-3.747-9.86568-3.7484-6.62349,0-10.81,3.2382a9.82162,9.82162,0,0,0-4.18656,8.046l-17.61759-1.3845q0-10.627,9.20945-17.3625,9.20743-6.73305,23.5508-6.7335,16.23307,0,24.31709,9.68159,9.53457-9.82723,24.096-9.68159,15.43176,0,24.098,9.42751,8.6613,9.42944,8.6622,26.53589v9.97373H338.59282q.65574,10.11978,6.18831,15.87093,5.53107,5.75165,15.28872,5.75015a36.67432,36.67432,0,0,0,17.76265-4.22058l4.4417-2.47692,5.3149,12.08651a37.846,37.846,0,0,1-12.7037,6.4054A53.77171,53.77171,0,0,1,359.04947,661.40929Zm-55.25566-13.397a23.17607,23.17607,0,0,0,9.17343-2.1478,27.70444,27.70444,0,0,0,8.22708-5.278V625.37082H306.924q-7.57184.14856-11.93746,3.60535a10.51935,10.51935,0,0,0-4.36963,8.55319,9.485,9.485,0,0,0,3.38426,7.60685Q297.38942,648.01578,303.79381,648.01228Zm52.63568-54.09018a15.353,15.353,0,0,0-11.82942,5.0218q-4.62474,5.027-5.78817,14.2714h32.9063v-2.1858q0-8.22315-3.96748-12.6668Q363.78174,593.92105,356.42949,593.9221Z"/><path class="b" d="M423.90981,562.03371v19.14718H437.814V594.2858H423.90981v43.97244q0,4.51518,1.78369,6.51543,1.78111,2.00325,6.3684,2.00275a27.32574,27.32574,0,0,0,6.18931-.72827v13.68611a43.61759,43.61759,0,0,1-11.64841,1.67463q-20.38365,0-20.38561-22.49541V594.2858H393.2604V581.18089h12.95679V562.03371Z"/><path class="b" d="M481.1051,661.40929q-16.8183,0-27.2642-10.593-10.4469-10.594-10.4469-28.21155V620.422a47.27079,47.27079,0,0,1,4.5507-21.0769,34.62541,34.62541,0,0,1,12.7768-14.45139,33.7778,33.7778,0,0,1,18.34581-5.16791q16.08749,0,24.86229,10.2648,8.77078,10.2654,8.7723,29.0469v7.13462H461.2317q.79978,9.75665,6.5134,15.43477a19.5627,19.5627,0,0,0,14.3794,5.67712,23.95821,23.95821,0,0,0,19.8024-9.82667l9.53649,9.1004a31.84062,31.84062,0,0,1-12.63069,10.95509,39.54327,39.54327,0,0,1-17.7276,3.89646m-2.11081-67.48719a14.90156,14.90156,0,0,0-11.75839,5.0949q-4.47767,5.0958-5.7151,14.1983h33.70759v-1.3115q-.5823-8.8833-4.73079-13.432-4.152-4.5483-11.50331-4.5497"/><path class="b" d="M565.92191,597.3432a43.77882,43.77882,0,0,0-7.20771-.5832q-12.15751,0-16.37909,9.3205v53.87215H524.64549V581.1812h16.8893l.4361,8.80929q6.4059-10.26388,17.7637-10.2648a16.56229,16.56229,0,0,1,6.26031,1.01831Z"/><path class="b" d="M591.8002,581.181l.51019,9.10139q8.73468-10.55789,22.9325-10.5569,24.60782,0,25.0434,28.17351v52.05345H622.5957v-51.033q0-7.49835-3.2402-11.1032-3.23969-3.60285-10.591-3.6033-10.7049,0-15.94391,9.6826v56.057H575.12991V581.181Z"/><path class="b" d="M652.58591,560.7251a9.38527,9.38527,0,0,1,2.583-6.7706q2.5839-2.69355,7.39069-2.695,4.80478,0,7.42581,2.695a9.319,9.319,0,0,1,2.62,6.7706,9.10034,9.10034,0,0,1-2.62,6.65941q-2.62293,2.66053-7.42581,2.658-4.80479,0-7.39069-2.658A9.16359,9.16359,0,0,1,652.58591,560.7251Zm1.09039,99.227h17.69061V581.18069H653.6763Z"/><path class="b" d="M713.88681,562.03371v19.14718H727.791V594.2858H713.88681v43.97244q0,4.51518,1.78369,6.51543,1.78111,2.00325,6.36841,2.00275a27.32559,27.32559,0,0,0,6.1893-.72827v13.68611a43.61759,43.61759,0,0,1-11.64841,1.67463q-20.38516,0-20.38559-22.49541V594.2858H683.23639V581.18089h12.95782V562.03371Z"/><path class="b" d="M770.25562,634.618l16.017-53.437h18.856l-31.30569,90.71091q-7.20873,19.87342-24.46012,19.87343a31.51058,31.51058,0,0,1-8.51819-1.31649V676.6957l3.34821.21909q6.697,0,10.08279-2.43591,3.38535-2.43842,5.351-8.18506l2.548-6.76453L734.5112,581.181h19.07419Z"/><path class="c" d="M629.95071,357.00049c-34.69232,0-58.47161,21.67651-79.02322,48.533l12.1785,17.7897c18.82712-25.75421,38.8356-46.01752,66.84472-46.01752,32.17258,0,58.92569,23.32111,63.866,53.74411H613.9502v20.3061H714.49191a83.81693,83.81693,0,0,0,.62049-10.15311c0-46.42938-38.2034-84.2023-85.16169-84.2023"/><path class="c" d="M629.95071,505.09821c-34.25341,0-56.85482-29.583-85.5458-72.9874s-55.77281-75.11032-97.77811-75.11032c-46.9591,0-85.16249,37.77292-85.16249,84.2023,0,46.4286,38.20339,84.20151,85.16249,84.20151,34.631,0,58.3884-21.6017,78.9147-48.3926l-12.08931-17.904c-18.82209,25.7424-38.8264,45.99051-66.82539,45.99051-35.6719,0-64.6925-28.66321-64.6925-63.89542s29.0206-63.8971,64.6925-63.8971c34.25259,0,55.6349,28.07651,85.4819,72.91681s55.83591,75.1818,97.842,75.1818a85.28052,85.28052,0,0,0,79.39319-53.7432H686.80731a64.86784,64.86784,0,0,1-56.8566,33.43711"/></svg>